<svg width="28" height="24" viewBox="0 0 28 24" fill="none" xmlns="http://www.w3.org/2000/svg">
<path d="M25.9998 9.99984H24.6665V8.6665C24.6665 8.31288 24.526 7.97374 24.276 7.7237C24.0259 7.47365 23.6868 7.33317 23.3332 7.33317C22.9795 7.33317 22.6404 7.47365 22.3904 7.7237C22.1403 7.97374 21.9998 8.31288 21.9998 8.6665V9.99984H20.6665C20.3129 9.99984 19.9737 10.1403 19.7237 10.3904C19.4736 10.6404 19.3332 10.9795 19.3332 11.3332C19.3332 11.6868 19.4736 12.0259 19.7237 12.276C19.9737 12.526 20.3129 12.6665 20.6665 12.6665H21.9998V13.9998C21.9998 14.3535 22.1403 14.6926 22.3904 14.9426C22.6404 15.1927 22.9795 15.3332 23.3332 15.3332C23.6868 15.3332 24.0259 15.1927 24.276 14.9426C24.526 14.6926 24.6665 14.3535 24.6665 13.9998V12.6665H25.9998C26.3535 12.6665 26.6926 12.526 26.9426 12.276C27.1927 12.0259 27.3332 11.6868 27.3332 11.3332C27.3332 10.9795 27.1927 10.6404 26.9426 10.3904C26.6926 10.1403 26.3535 9.99984 25.9998 9.99984ZM15.7332 12.2932C16.4446 11.6773 17.0152 10.9157 17.4063 10.0599C17.7974 9.20405 17.9998 8.27412 17.9998 7.33317C17.9998 5.56506 17.2975 3.86937 16.0472 2.61913C14.797 1.36888 13.1013 0.666504 11.3332 0.666504C9.56506 0.666504 7.86937 1.36888 6.61913 2.61913C5.36888 3.86937 4.6665 5.56506 4.6665 7.33317C4.66649 8.27412 4.86891 9.20405 5.26 10.0599C5.6511 10.9157 6.22173 11.6773 6.93317 12.2932C5.06669 13.1384 3.48312 14.5032 2.37181 16.2246C1.2605 17.9459 0.668466 19.9509 0.666504 21.9998C0.666504 22.3535 0.80698 22.6926 1.05703 22.9426C1.30708 23.1927 1.64622 23.3332 1.99984 23.3332C2.35346 23.3332 2.6926 23.1927 2.94265 22.9426C3.19269 22.6926 3.33317 22.3535 3.33317 21.9998C3.33317 19.8781 4.17603 17.8433 5.67632 16.343C7.17661 14.8427 9.21144 13.9998 11.3332 13.9998C13.4549 13.9998 15.4897 14.8427 16.99 16.343C18.4903 17.8433 19.3332 19.8781 19.3332 21.9998C19.3332 22.3535 19.4736 22.6926 19.7237 22.9426C19.9737 23.1927 20.3129 23.3332 20.6665 23.3332C21.0201 23.3332 21.3593 23.1927 21.6093 22.9426C21.8594 22.6926 21.9998 22.3535 21.9998 21.9998C21.9979 19.9509 21.4058 17.9459 20.2945 16.2246C19.1832 14.5032 17.5997 13.1384 15.7332 12.2932V12.2932ZM11.3332 11.3332C10.542 11.3332 9.76869 11.0986 9.11089 10.659C8.45309 10.2195 7.9404 9.59481 7.63765 8.8639C7.3349 8.133 7.25569 7.32873 7.41003 6.55281C7.56437 5.77689 7.94533 5.06415 8.50474 4.50474C9.06415 3.94533 9.77689 3.56437 10.5528 3.41003C11.3287 3.25569 12.133 3.3349 12.8639 3.63765C13.5948 3.9404 14.2195 4.45309 14.659 5.11089C15.0986 5.76869 15.3332 6.54205 15.3332 7.33317C15.3332 8.39404 14.9117 9.41145 14.1616 10.1616C13.4115 10.9117 12.394 11.3332 11.3332 11.3332Z" fill="#F1BA2C"/>
</svg>
