<svg width="16" height="18" viewBox="0 0 16 18" fill="none" xmlns="http://www.w3.org/2000/svg">
<path d="M14.6669 7.66675H4.54685L8.94685 3.28008C9.19793 3.02901 9.33898 2.68849 9.33898 2.33342C9.33898 1.97835 9.19793 1.63782 8.94685 1.38675C8.69578 1.13568 8.35526 0.994629 8.00019 0.994629C7.64512 0.994629 7.30459 1.13568 7.05352 1.38675L0.386854 8.05342C0.265467 8.18022 0.170313 8.32975 0.106854 8.49342C-0.0265034 8.81803 -0.0265034 9.18214 0.106854 9.50675C0.170313 9.67042 0.265467 9.81995 0.386854 9.94675L7.05352 16.6134C7.17747 16.7384 7.32494 16.8376 7.48742 16.9053C7.6499 16.973 7.82417 17.0078 8.00019 17.0078C8.1762 17.0078 8.35048 16.973 8.51296 16.9053C8.67544 16.8376 8.8229 16.7384 8.94685 16.6134C9.07183 16.4895 9.17102 16.342 9.23871 16.1795C9.3064 16.017 9.34125 15.8428 9.34125 15.6667C9.34125 15.4907 9.3064 15.3165 9.23871 15.154C9.17102 14.9915 9.07183 14.844 8.94685 14.7201L4.54685 10.3334H14.6669C15.0205 10.3334 15.3596 10.1929 15.6097 9.94289C15.8597 9.69284 16.0002 9.35371 16.0002 9.00008C16.0002 8.64646 15.8597 8.30732 15.6097 8.05728C15.3596 7.80723 15.0205 7.66675 14.6669 7.66675Z" fill="white"/>
</svg>
