<svg width="28" height="28" viewBox="0 0 28 28" fill="none" xmlns="http://www.w3.org/2000/svg">
<path d="M4.66666 22.0002H10.32C10.4955 22.0013 10.6694 21.9676 10.8319 21.9013C10.9943 21.8349 11.1421 21.7372 11.2667 21.6136L20.4933 12.3736L24.28 8.66691C24.405 8.54296 24.5042 8.39549 24.5718 8.23301C24.6395 8.07053 24.6744 7.89626 24.6744 7.72024C24.6744 7.54423 24.6395 7.36995 24.5718 7.20748C24.5042 7.045 24.405 6.89753 24.28 6.77358L18.6267 1.05358C18.5027 0.928606 18.3552 0.829414 18.1928 0.761722C18.0303 0.694031 17.856 0.65918 17.68 0.65918C17.504 0.65918 17.3297 0.694031 17.1672 0.761722C17.0047 0.829414 16.8573 0.928606 16.7333 1.05358L12.9733 4.82691L3.71999 14.0669C3.59641 14.1915 3.49865 14.3393 3.43229 14.5017C3.36594 14.6642 3.33231 14.8381 3.33332 15.0136V20.6669C3.33332 21.0205 3.4738 21.3597 3.72385 21.6097C3.9739 21.8598 4.31303 22.0002 4.66666 22.0002ZM17.68 3.88024L21.4533 7.65358L19.56 9.54691L15.7867 5.77358L17.68 3.88024ZM5.99999 15.5602L13.9067 7.65358L17.68 11.4269L9.77332 19.3336H5.99999V15.5602ZM26 24.6669H1.99999C1.64637 24.6669 1.30723 24.8074 1.05718 25.0574C0.807132 25.3075 0.666656 25.6466 0.666656 26.0002C0.666656 26.3539 0.807132 26.693 1.05718 26.9431C1.30723 27.1931 1.64637 27.3336 1.99999 27.3336H26C26.3536 27.3336 26.6928 27.1931 26.9428 26.9431C27.1928 26.693 27.3333 26.3539 27.3333 26.0002C27.3333 25.6466 27.1928 25.3075 26.9428 25.0574C26.6928 24.8074 26.3536 24.6669 26 24.6669Z" fill="#F1BA2C"/>
</svg>
