<svg width="28" height="28" viewBox="0 0 28 28" fill="none" xmlns="http://www.w3.org/2000/svg">
<path d="M13.9999 7.77322C14.3536 7.77322 14.6927 7.63274 14.9428 7.3827C15.1928 7.13265 15.3333 6.79351 15.3333 6.43989V5.70655L23.3333 3.70655V7.62655L17.5999 9.06655C17.2463 9.10899 16.924 9.29016 16.704 9.57021C16.484 9.85027 16.3842 10.2063 16.4266 10.5599C16.469 10.9135 16.6502 11.2358 16.9303 11.4558C17.2103 11.6759 17.5663 11.7757 17.9199 11.7332H18.2399L24.9866 9.99989H25.0799L25.3333 9.87989L25.5333 9.74655C25.598 9.68626 25.6561 9.61921 25.7066 9.54655C25.7586 9.48526 25.8034 9.41815 25.8399 9.34655C25.8803 9.27179 25.9074 9.19058 25.9199 9.10655C25.9324 9.02256 25.9324 8.93721 25.9199 8.85322C25.9662 8.80134 25.9943 8.73581 25.9999 8.66655V1.99989C26.006 1.79429 25.9644 1.59009 25.8784 1.40325C25.7924 1.21642 25.6643 1.05201 25.5042 0.922891C25.3441 0.793773 25.1563 0.703447 24.9555 0.658978C24.7546 0.614508 24.5463 0.617101 24.3466 0.666553L13.6799 3.33322C13.3841 3.40622 13.1222 3.57835 12.9378 3.82095C12.7535 4.06354 12.6577 4.36197 12.6666 4.66655V6.43989C12.6666 6.79351 12.8071 7.13265 13.0571 7.3827C13.3072 7.63274 13.6463 7.77322 13.9999 7.77322ZM26.9466 25.1066L14.9466 13.1066L2.94661 1.10655C2.69263 0.91005 2.37627 0.811808 2.05566 0.829879C1.73505 0.84795 1.43174 0.981121 1.20145 1.20492C0.971168 1.42872 0.829387 1.72811 0.802165 2.04807C0.774943 2.36803 0.864108 2.68707 1.05328 2.94655L12.6666 14.5466V18.4666C12.0436 18.1623 11.3599 18.0027 10.6666 17.9999C9.74363 17.9999 8.84138 18.2736 8.07395 18.7864C7.30652 19.2991 6.70838 20.028 6.35517 20.8807C6.00196 21.7334 5.90955 22.6717 6.08961 23.577C6.26968 24.4822 6.71413 25.3137 7.36678 25.9664C8.01942 26.619 8.85094 27.0635 9.75619 27.2436C10.6614 27.4236 11.5997 27.3312 12.4525 26.978C13.3052 26.6248 14.034 26.0266 14.5468 25.2592C15.0596 24.4918 15.3333 23.5895 15.3333 22.6666V17.2132L25.0533 26.9466C25.1772 27.0715 25.3247 27.1707 25.4872 27.2384C25.6497 27.3061 25.8239 27.341 25.9999 27.341C26.176 27.341 26.3502 27.3061 26.5127 27.2384C26.6752 27.1707 26.8227 27.0715 26.9466 26.9466C27.0716 26.8226 27.1708 26.6751 27.2385 26.5127C27.3062 26.3502 27.341 26.1759 27.341 25.9999C27.341 25.8239 27.3062 25.6496 27.2385 25.4871C27.1708 25.3246 27.0716 25.1772 26.9466 25.0532V25.1066ZM10.6666 24.6666C10.271 24.6666 9.88437 24.5493 9.55547 24.3295C9.22657 24.1097 8.97023 23.7974 8.81885 23.4319C8.66747 23.0665 8.62787 22.6643 8.70504 22.2764C8.78221 21.8884 8.97269 21.532 9.2524 21.2523C9.5321 20.9726 9.88847 20.7822 10.2764 20.705C10.6644 20.6278 11.0665 20.6674 11.432 20.8188C11.7974 20.9702 12.1098 21.2265 12.3295 21.5554C12.5493 21.8843 12.6666 22.271 12.6666 22.6666C12.6666 23.197 12.4559 23.7057 12.0808 24.0808C11.7058 24.4558 11.197 24.6666 10.6666 24.6666Z" fill="#F1BA2C"/>
</svg>
