<svg width="28" height="28" viewBox="0 0 28 28" fill="none" xmlns="http://www.w3.org/2000/svg">
<path d="M13.9998 0.666504C11.3628 0.666504 8.7849 1.44849 6.59224 2.91358C4.39958 4.37866 2.69062 6.46104 1.68145 8.89739C0.672281 11.3337 0.408237 14.0146 0.922706 16.601C1.43718 19.1875 2.70705 21.5632 4.57175 23.4279C6.43645 25.2926 8.81223 26.5625 11.3986 27.077C13.9851 27.5914 16.6659 27.3274 19.1023 26.3182C21.5386 25.3091 23.621 23.6001 25.0861 21.4074C26.5512 19.2148 27.3332 16.6369 27.3332 13.9998C27.3332 12.2489 26.9883 10.5151 26.3182 8.89739C25.6482 7.27972 24.666 5.80986 23.4279 4.57175C22.1898 3.33363 20.72 2.35151 19.1023 1.68144C17.4846 1.01138 15.7508 0.666504 13.9998 0.666504V0.666504ZM13.9998 24.6665C11.1709 24.6665 8.45776 23.5427 6.45737 21.5423C4.45698 19.5419 3.33318 16.8288 3.33318 13.9998C3.33023 11.631 4.12386 9.3299 5.58651 7.4665L20.5332 22.4132C18.6698 23.8758 16.3687 24.6695 13.9998 24.6665V24.6665ZM22.4132 20.5332L7.46651 5.5865C9.3299 4.12386 11.631 3.33022 13.9998 3.33317C16.8288 3.33317 19.5419 4.45698 21.5423 6.45737C23.5427 8.45775 24.6665 11.1709 24.6665 13.9998C24.6695 16.3687 23.8758 18.6698 22.4132 20.5332Z" fill="#F1BA2C"/>
</svg>
