<svg class="ui visually-hidden" aria-hidden="true">
    <!-- иконка логина -->
    <symbol id="ui__login" viewBox="0 0 28 28">
        <path d="M18.947 14.947a8 8 0 1 0-9.894 0A13.333 13.333 0 0 0 .76 25.852a1.341 1.341 0 1 0 2.667.293 10.667 10.667 0 0 1 21.2 0 1.333 1.333 0 0 0 1.333 1.187h.147a1.333 1.333 0 0 0 1.173-1.466 13.333 13.333 0 0 0-8.333-10.92ZM14 14a5.333 5.333 0 1 1 0-10.667A5.333 5.333 0 0 1 14 14Z"/>
    </symbol>
    <!-- иконка сетка -->
    <symbol id="ui__grid" viewBox="0 0 28 28">
        <path d="M11.333 15.333H2a1.333 1.333 0 0 0-1.333 1.333V26A1.333 1.333 0 0 0 2 27.333h9.333A1.333 1.333 0 0 0 12.667 26v-9.334a1.333 1.333 0 0 0-1.334-1.333ZM10 24.666H3.333V18H10v6.666Zm16-24h-9.333A1.333 1.333 0 0 0 15.333 2v9.333a1.334 1.334 0 0 0 1.334 1.333H26a1.334 1.334 0 0 0 1.333-1.333V2A1.334 1.334 0 0 0 26 .667ZM24.667 10H18V3.333h6.667V10ZM26 15.333h-9.333a1.333 1.333 0 0 0-1.334 1.333V26a1.333 1.333 0 0 0 1.334 1.333H26A1.333 1.333 0 0 0 27.333 26v-9.334A1.333 1.333 0 0 0 26 15.333Zm-1.333 9.333H18V18h6.667v6.666Zm-13.334-24H2A1.333 1.333 0 0 0 .667 2v9.333A1.333 1.333 0 0 0 2 12.666h9.333a1.333 1.333 0 0 0 1.334-1.333V2A1.333 1.333 0 0 0 11.333.667ZM10 10H3.333V3.333H10V10Z"/>
    </symbol>
    <!-- иконка список -->
    <symbol id="ui__list" viewBox="0 0 22 28">
        <path d="M5.667 20.666a1.333 1.333 0 1 0 0 2.667 1.333 1.333 0 0 0 0-2.666Zm0-8a1.333 1.333 0 1 0 0 2.667 1.333 1.333 0 0 0 0-2.667Zm0-8a1.333 1.333 0 1 0 0 2.667 1.333 1.333 0 0 0 0-2.667Zm16 0a4 4 0 0 0-4-4H4.333a4 4 0 0 0-4 4v2.667A4 4 0 0 0 1.373 10a4 4 0 0 0-1.04 2.666v2.667A4 4 0 0 0 1.373 18a4 4 0 0 0-1.04 2.666v2.667a4 4 0 0 0 4 4h13.334a4 4 0 0 0 4-4v-2.666A4 4 0 0 0 20.627 18a3.999 3.999 0 0 0 1.04-2.667v-2.667A4 4 0 0 0 20.627 10a4 4 0 0 0 1.04-2.667V4.666ZM19 23.334a1.334 1.334 0 0 1-1.333 1.334H4.333A1.334 1.334 0 0 1 3 23.332v-2.666a1.333 1.333 0 0 1 1.333-1.334h13.334A1.333 1.333 0 0 1 19 20.667v2.666Zm0-8a1.334 1.334 0 0 1-1.333 1.333H4.333A1.334 1.334 0 0 1 3 15.333v-2.667a1.333 1.333 0 0 1 1.333-1.333h13.334A1.333 1.333 0 0 1 19 12.666v2.667Zm0-8a1.334 1.334 0 0 1-1.333 1.333H4.333A1.333 1.333 0 0 1 3 7.333V4.666a1.333 1.333 0 0 1 1.333-1.333h13.334A1.333 1.333 0 0 1 19 4.666v2.667Z"/>
    </symbol>
</svg>
